<?xml version="1.0" encoding="UTF-8" standalone="no"?>
<!DOCTYPE svg PUBLIC "-//W3C//DTD SVG 1.1//EN"
 "http://www.w3.org/Graphics/SVG/1.1/DTD/svg11.dtd">
<!-- Generated by graphviz version 2.50.0 (0)
 -->
<!-- Title: Tree Pages: 1 -->
<svg width="1080pt" height="433pt"
 viewBox="0.00 0.00 1080.00 433.00" xmlns="http://www.w3.org/2000/svg" xmlns:xlink="http://www.w3.org/1999/xlink">
<g id="graph0" class="graph" transform="scale(1 1) rotate(0) translate(4 429)">
<title>Tree</title>
<polygon fill="white" stroke="transparent" points="-4,4 -4,-429 1076,-429 1076,4 -4,4"/>
<!-- 0 -->
<g id="node1" class="node">
<title>0</title>
<path fill="#eca16c" stroke="black" d="M580,-425C580,-425 464,-425 464,-425 458,-425 452,-419 452,-413 452,-413 452,-354 452,-354 452,-348 458,-342 464,-342 464,-342 580,-342 580,-342 586,-342 592,-348 592,-354 592,-354 592,-413 592,-413 592,-419 586,-425 580,-425"/>
<text text-anchor="middle" x="522" y="-409.8" font-family="Helvetica,sans-Serif" font-size="14.00">Age &lt;= 42.5</text>
<text text-anchor="middle" x="522" y="-394.8" font-family="Helvetica,sans-Serif" font-size="14.00">gini = 0.324</text>
<text text-anchor="middle" x="522" y="-379.8" font-family="Helvetica,sans-Serif" font-size="14.00">samples = 8000</text>
<text text-anchor="middle" x="522" y="-364.8" font-family="Helvetica,sans-Serif" font-size="14.00">value = [6370, 1630]</text>
<text text-anchor="middle" x="522" y="-349.8" font-family="Helvetica,sans-Serif" font-size="14.00">class = Stay</text>
</g>
<!-- 1 -->
<g id="node2" class="node">
<title>1</title>
<path fill="#e89152" stroke="black" d="M476.5,-306C476.5,-306 343.5,-306 343.5,-306 337.5,-306 331.5,-300 331.5,-294 331.5,-294 331.5,-235 331.5,-235 331.5,-229 337.5,-223 343.5,-223 343.5,-223 476.5,-223 476.5,-223 482.5,-223 488.5,-229 488.5,-235 488.5,-235 488.5,-294 488.5,-294 488.5,-300 482.5,-306 476.5,-306"/>
<text text-anchor="middle" x="410" y="-290.8" font-family="Helvetica,sans-Serif" font-size="14.00">NumOfProducts &lt;= 2.5</text>
<text text-anchor="middle" x="410" y="-275.8" font-family="Helvetica,sans-Serif" font-size="14.00">gini = 0.202</text>
<text text-anchor="middle" x="410" y="-260.8" font-family="Helvetica,sans-Serif" font-size="14.00">samples = 5690</text>
<text text-anchor="middle" x="410" y="-245.8" font-family="Helvetica,sans-Serif" font-size="14.00">value = [5041, 649]</text>
<text text-anchor="middle" x="410" y="-230.8" font-family="Helvetica,sans-Serif" font-size="14.00">class = Stay</text>
</g>
<!-- 0&#45;&gt;1 -->
<g id="edge1" class="edge">
<title>0&#45;&gt;1</title>
<path fill="none" stroke="black" d="M483.14,-341.91C474.37,-332.74 464.97,-322.93 455.94,-313.49"/>
<polygon fill="black" stroke="black" points="458.23,-310.82 448.79,-306.02 453.18,-315.66 458.23,-310.82"/>
<text text-anchor="middle" x="448.24" y="-327.31" font-family="Helvetica,sans-Serif" font-size="14.00">True</text>
</g>
<!-- 8 -->
<g id="node9" class="node">
<title>8</title>
<path fill="#f8decb" stroke="black" d="M737,-306C737,-306 603,-306 603,-306 597,-306 591,-300 591,-294 591,-294 591,-235 591,-235 591,-229 597,-223 603,-223 603,-223 737,-223 737,-223 743,-223 749,-229 749,-235 749,-235 749,-294 749,-294 749,-300 743,-306 737,-306"/>
<text text-anchor="middle" x="670" y="-290.8" font-family="Helvetica,sans-Serif" font-size="14.00">IsActiveMember &lt;= 0.5</text>
<text text-anchor="middle" x="670" y="-275.8" font-family="Helvetica,sans-Serif" font-size="14.00">gini = 0.489</text>
<text text-anchor="middle" x="670" y="-260.8" font-family="Helvetica,sans-Serif" font-size="14.00">samples = 2310</text>
<text text-anchor="middle" x="670" y="-245.8" font-family="Helvetica,sans-Serif" font-size="14.00">value = [1329, 981]</text>
<text text-anchor="middle" x="670" y="-230.8" font-family="Helvetica,sans-Serif" font-size="14.00">class = Stay</text>
</g>
<!-- 0&#45;&gt;8 -->
<g id="edge8" class="edge">
<title>0&#45;&gt;8</title>
<path fill="none" stroke="black" d="M573.35,-341.91C585.4,-332.38 598.34,-322.15 610.71,-312.37"/>
<polygon fill="black" stroke="black" points="613.07,-314.97 618.74,-306.02 608.73,-309.48 613.07,-314.97"/>
<text text-anchor="middle" x="615.84" y="-327.15" font-family="Helvetica,sans-Serif" font-size="14.00">False</text>
</g>
<!-- 2 -->
<g id="node3" class="node">
<title>2</title>
<path fill="#e88f4f" stroke="black" d="M282.5,-187C282.5,-187 149.5,-187 149.5,-187 143.5,-187 137.5,-181 137.5,-175 137.5,-175 137.5,-116 137.5,-116 137.5,-110 143.5,-104 149.5,-104 149.5,-104 282.5,-104 282.5,-104 288.5,-104 294.5,-110 294.5,-116 294.5,-116 294.5,-175 294.5,-175 294.5,-181 288.5,-187 282.5,-187"/>
<text text-anchor="middle" x="216" y="-171.8" font-family="Helvetica,sans-Serif" font-size="14.00">NumOfProducts &lt;= 1.5</text>
<text text-anchor="middle" x="216" y="-156.8" font-family="Helvetica,sans-Serif" font-size="14.00">gini = 0.179</text>
<text text-anchor="middle" x="216" y="-141.8" font-family="Helvetica,sans-Serif" font-size="14.00">samples = 5559</text>
<text text-anchor="middle" x="216" y="-126.8" font-family="Helvetica,sans-Serif" font-size="14.00">value = [5007, 552]</text>
<text text-anchor="middle" x="216" y="-111.8" font-family="Helvetica,sans-Serif" font-size="14.00">class = Stay</text>
</g>
<!-- 1&#45;&gt;2 -->
<g id="edge2" class="edge">
<title>1&#45;&gt;2</title>
<path fill="none" stroke="black" d="M342.69,-222.91C326.29,-213.02 308.64,-202.37 291.87,-192.25"/>
<polygon fill="black" stroke="black" points="293.56,-189.19 283.19,-187.02 289.94,-195.18 293.56,-189.19"/>
</g>
<!-- 5 -->
<g id="node6" class="node">
<title>5</title>
<path fill="#7ebfee" stroke="black" d="M471,-187C471,-187 349,-187 349,-187 343,-187 337,-181 337,-175 337,-175 337,-116 337,-116 337,-110 343,-104 349,-104 349,-104 471,-104 471,-104 477,-104 483,-110 483,-116 483,-116 483,-175 483,-175 483,-181 477,-187 471,-187"/>
<text text-anchor="middle" x="410" y="-171.8" font-family="Helvetica,sans-Serif" font-size="14.00">Balance &lt;= 55948.91</text>
<text text-anchor="middle" x="410" y="-156.8" font-family="Helvetica,sans-Serif" font-size="14.00">gini = 0.384</text>
<text text-anchor="middle" x="410" y="-141.8" font-family="Helvetica,sans-Serif" font-size="14.00">samples = 131</text>
<text text-anchor="middle" x="410" y="-126.8" font-family="Helvetica,sans-Serif" font-size="14.00">value = [34, 97]</text>
<text text-anchor="middle" x="410" y="-111.8" font-family="Helvetica,sans-Serif" font-size="14.00">class = Exited</text>
</g>
<!-- 1&#45;&gt;5 -->
<g id="edge5" class="edge">
<title>1&#45;&gt;5</title>
<path fill="none" stroke="black" d="M410,-222.91C410,-214.65 410,-205.86 410,-197.3"/>
<polygon fill="black" stroke="black" points="413.5,-197.02 410,-187.02 406.5,-197.02 413.5,-197.02"/>
</g>
<!-- 3 -->
<g id="node4" class="node">
<title>3</title>
<path fill="#ea995e" stroke="black" d="M120,-68C120,-68 12,-68 12,-68 6,-68 0,-62 0,-56 0,-56 0,-12 0,-12 0,-6 6,0 12,0 12,0 120,0 120,0 126,0 132,-6 132,-12 132,-12 132,-56 132,-56 132,-62 126,-68 120,-68"/>
<text text-anchor="middle" x="66" y="-52.8" font-family="Helvetica,sans-Serif" font-size="14.00">gini = 0.266</text>
<text text-anchor="middle" x="66" y="-37.8" font-family="Helvetica,sans-Serif" font-size="14.00">samples = 2777</text>
<text text-anchor="middle" x="66" y="-22.8" font-family="Helvetica,sans-Serif" font-size="14.00">value = [2338, 439]</text>
<text text-anchor="middle" x="66" y="-7.8" font-family="Helvetica,sans-Serif" font-size="14.00">class = Stay</text>
</g>
<!-- 2&#45;&gt;3 -->
<g id="edge3" class="edge">
<title>2&#45;&gt;3</title>
<path fill="none" stroke="black" d="M160.15,-103.73C147.03,-94.15 133.07,-83.96 120.03,-74.44"/>
<polygon fill="black" stroke="black" points="121.76,-71.37 111.62,-68.3 117.63,-77.02 121.76,-71.37"/>
</g>
<!-- 4 -->
<g id="node5" class="node">
<title>4</title>
<path fill="#e68641" stroke="black" d="M269.5,-68C269.5,-68 162.5,-68 162.5,-68 156.5,-68 150.5,-62 150.5,-56 150.5,-56 150.5,-12 150.5,-12 150.5,-6 156.5,0 162.5,0 162.5,0 269.5,0 269.5,0 275.5,0 281.5,-6 281.5,-12 281.5,-12 281.5,-56 281.5,-56 281.5,-62 275.5,-68 269.5,-68"/>
<text text-anchor="middle" x="216" y="-52.8" font-family="Helvetica,sans-Serif" font-size="14.00">gini = 0.078</text>
<text text-anchor="middle" x="216" y="-37.8" font-family="Helvetica,sans-Serif" font-size="14.00">samples = 2782</text>
<text text-anchor="middle" x="216" y="-22.8" font-family="Helvetica,sans-Serif" font-size="14.00">value = [2669, 113]</text>
<text text-anchor="middle" x="216" y="-7.8" font-family="Helvetica,sans-Serif" font-size="14.00">class = Stay</text>
</g>
<!-- 2&#45;&gt;4 -->
<g id="edge4" class="edge">
<title>2&#45;&gt;4</title>
<path fill="none" stroke="black" d="M216,-103.73C216,-95.52 216,-86.86 216,-78.56"/>
<polygon fill="black" stroke="black" points="219.5,-78.3 216,-68.3 212.5,-78.3 219.5,-78.3"/>
</g>
<!-- 6 -->
<g id="node7" class="node">
<title>6</title>
<path fill="#ffffff" stroke="black" d="M398,-68C398,-68 312,-68 312,-68 306,-68 300,-62 300,-56 300,-56 300,-12 300,-12 300,-6 306,0 312,0 312,0 398,0 398,0 404,0 410,-6 410,-12 410,-12 410,-56 410,-56 410,-62 404,-68 398,-68"/>
<text text-anchor="middle" x="355" y="-52.8" font-family="Helvetica,sans-Serif" font-size="14.00">gini = 0.5</text>
<text text-anchor="middle" x="355" y="-37.8" font-family="Helvetica,sans-Serif" font-size="14.00">samples = 54</text>
<text text-anchor="middle" x="355" y="-22.8" font-family="Helvetica,sans-Serif" font-size="14.00">value = [27, 27]</text>
<text text-anchor="middle" x="355" y="-7.8" font-family="Helvetica,sans-Serif" font-size="14.00">class = Stay</text>
</g>
<!-- 5&#45;&gt;6 -->
<g id="edge6" class="edge">
<title>5&#45;&gt;6</title>
<path fill="none" stroke="black" d="M389.52,-103.73C385.21,-95.15 380.66,-86.09 376.32,-77.46"/>
<polygon fill="black" stroke="black" points="379.34,-75.66 371.73,-68.3 373.09,-78.81 379.34,-75.66"/>
</g>
<!-- 7 -->
<g id="node8" class="node">
<title>7</title>
<path fill="#4da7e8" stroke="black" d="M518,-68C518,-68 440,-68 440,-68 434,-68 428,-62 428,-56 428,-56 428,-12 428,-12 428,-6 434,0 440,0 440,0 518,0 518,0 524,0 530,-6 530,-12 530,-12 530,-56 530,-56 530,-62 524,-68 518,-68"/>
<text text-anchor="middle" x="479" y="-52.8" font-family="Helvetica,sans-Serif" font-size="14.00">gini = 0.165</text>
<text text-anchor="middle" x="479" y="-37.8" font-family="Helvetica,sans-Serif" font-size="14.00">samples = 77</text>
<text text-anchor="middle" x="479" y="-22.8" font-family="Helvetica,sans-Serif" font-size="14.00">value = [7, 70]</text>
<text text-anchor="middle" x="479" y="-7.8" font-family="Helvetica,sans-Serif" font-size="14.00">class = Exited</text>
</g>
<!-- 5&#45;&gt;7 -->
<g id="edge7" class="edge">
<title>5&#45;&gt;7</title>
<path fill="none" stroke="black" d="M435.69,-103.73C441.21,-94.97 447.05,-85.7 452.59,-76.91"/>
<polygon fill="black" stroke="black" points="455.65,-78.63 458.02,-68.3 449.72,-74.89 455.65,-78.63"/>
</g>
<!-- 9 -->
<g id="node10" class="node">
<title>9</title>
<path fill="#bcdef6" stroke="black" d="M720.5,-187C720.5,-187 619.5,-187 619.5,-187 613.5,-187 607.5,-181 607.5,-175 607.5,-175 607.5,-116 607.5,-116 607.5,-110 613.5,-104 619.5,-104 619.5,-104 720.5,-104 720.5,-104 726.5,-104 732.5,-110 732.5,-116 732.5,-116 732.5,-175 732.5,-175 732.5,-181 726.5,-187 720.5,-187"/>
<text text-anchor="middle" x="670" y="-171.8" font-family="Helvetica,sans-Serif" font-size="14.00">Age &lt;= 50.5</text>
<text text-anchor="middle" x="670" y="-156.8" font-family="Helvetica,sans-Serif" font-size="14.00">gini = 0.48</text>
<text text-anchor="middle" x="670" y="-141.8" font-family="Helvetica,sans-Serif" font-size="14.00">samples = 1050</text>
<text text-anchor="middle" x="670" y="-126.8" font-family="Helvetica,sans-Serif" font-size="14.00">value = [419, 631]</text>
<text text-anchor="middle" x="670" y="-111.8" font-family="Helvetica,sans-Serif" font-size="14.00">class = Exited</text>
</g>
<!-- 8&#45;&gt;9 -->
<g id="edge9" class="edge">
<title>8&#45;&gt;9</title>
<path fill="none" stroke="black" d="M670,-222.91C670,-214.65 670,-205.86 670,-197.3"/>
<polygon fill="black" stroke="black" points="673.5,-197.02 670,-187.02 666.5,-197.02 673.5,-197.02"/>
</g>
<!-- 12 -->
<g id="node13" class="node">
<title>12</title>
<path fill="#efb185" stroke="black" d="M955.5,-187C955.5,-187 822.5,-187 822.5,-187 816.5,-187 810.5,-181 810.5,-175 810.5,-175 810.5,-116 810.5,-116 810.5,-110 816.5,-104 822.5,-104 822.5,-104 955.5,-104 955.5,-104 961.5,-104 967.5,-110 967.5,-116 967.5,-116 967.5,-175 967.5,-175 967.5,-181 961.5,-187 955.5,-187"/>
<text text-anchor="middle" x="889" y="-171.8" font-family="Helvetica,sans-Serif" font-size="14.00">NumOfProducts &lt;= 2.5</text>
<text text-anchor="middle" x="889" y="-156.8" font-family="Helvetica,sans-Serif" font-size="14.00">gini = 0.401</text>
<text text-anchor="middle" x="889" y="-141.8" font-family="Helvetica,sans-Serif" font-size="14.00">samples = 1260</text>
<text text-anchor="middle" x="889" y="-126.8" font-family="Helvetica,sans-Serif" font-size="14.00">value = [910, 350]</text>
<text text-anchor="middle" x="889" y="-111.8" font-family="Helvetica,sans-Serif" font-size="14.00">class = Stay</text>
</g>
<!-- 8&#45;&gt;12 -->
<g id="edge12" class="edge">
<title>8&#45;&gt;12</title>
<path fill="none" stroke="black" d="M745.98,-222.91C764.75,-212.88 784.98,-202.07 804.14,-191.84"/>
<polygon fill="black" stroke="black" points="805.98,-194.82 813.15,-187.02 802.68,-188.65 805.98,-194.82"/>
</g>
<!-- 10 -->
<g id="node11" class="node">
<title>10</title>
<path fill="#fef8f5" stroke="black" d="M661.5,-68C661.5,-68 560.5,-68 560.5,-68 554.5,-68 548.5,-62 548.5,-56 548.5,-56 548.5,-12 548.5,-12 548.5,-6 554.5,0 560.5,0 560.5,0 661.5,0 661.5,0 667.5,0 673.5,-6 673.5,-12 673.5,-12 673.5,-56 673.5,-56 673.5,-62 667.5,-68 661.5,-68"/>
<text text-anchor="middle" x="611" y="-52.8" font-family="Helvetica,sans-Serif" font-size="14.00">gini = 0.5</text>
<text text-anchor="middle" x="611" y="-37.8" font-family="Helvetica,sans-Serif" font-size="14.00">samples = 711</text>
<text text-anchor="middle" x="611" y="-22.8" font-family="Helvetica,sans-Serif" font-size="14.00">value = [365, 346]</text>
<text text-anchor="middle" x="611" y="-7.8" font-family="Helvetica,sans-Serif" font-size="14.00">class = Stay</text>
</g>
<!-- 9&#45;&gt;10 -->
<g id="edge10" class="edge">
<title>9&#45;&gt;10</title>
<path fill="none" stroke="black" d="M648.03,-103.73C643.36,-95.06 638.42,-85.9 633.73,-77.18"/>
<polygon fill="black" stroke="black" points="636.77,-75.44 628.94,-68.3 630.6,-78.76 636.77,-75.44"/>
</g>
<!-- 11 -->
<g id="node12" class="node">
<title>11</title>
<path fill="#5fb0ea" stroke="black" d="M796.5,-68C796.5,-68 703.5,-68 703.5,-68 697.5,-68 691.5,-62 691.5,-56 691.5,-56 691.5,-12 691.5,-12 691.5,-6 697.5,0 703.5,0 703.5,0 796.5,0 796.5,0 802.5,0 808.5,-6 808.5,-12 808.5,-12 808.5,-56 808.5,-56 808.5,-62 802.5,-68 796.5,-68"/>
<text text-anchor="middle" x="750" y="-52.8" font-family="Helvetica,sans-Serif" font-size="14.00">gini = 0.268</text>
<text text-anchor="middle" x="750" y="-37.8" font-family="Helvetica,sans-Serif" font-size="14.00">samples = 339</text>
<text text-anchor="middle" x="750" y="-22.8" font-family="Helvetica,sans-Serif" font-size="14.00">value = [54, 285]</text>
<text text-anchor="middle" x="750" y="-7.8" font-family="Helvetica,sans-Serif" font-size="14.00">class = Exited</text>
</g>
<!-- 9&#45;&gt;11 -->
<g id="edge11" class="edge">
<title>9&#45;&gt;11</title>
<path fill="none" stroke="black" d="M699.79,-103.73C706.25,-94.88 713.1,-85.51 719.59,-76.63"/>
<polygon fill="black" stroke="black" points="722.6,-78.44 725.67,-68.3 716.95,-74.31 722.6,-78.44"/>
</g>
<!-- 13 -->
<g id="node14" class="node">
<title>13</title>
<path fill="#edaa79" stroke="black" d="M939.5,-68C939.5,-68 838.5,-68 838.5,-68 832.5,-68 826.5,-62 826.5,-56 826.5,-56 826.5,-12 826.5,-12 826.5,-6 832.5,0 838.5,0 838.5,0 939.5,0 939.5,0 945.5,0 951.5,-6 951.5,-12 951.5,-12 951.5,-56 951.5,-56 951.5,-62 945.5,-68 939.5,-68"/>
<text text-anchor="middle" x="889" y="-52.8" font-family="Helvetica,sans-Serif" font-size="14.00">gini = 0.371</text>
<text text-anchor="middle" x="889" y="-37.8" font-family="Helvetica,sans-Serif" font-size="14.00">samples = 1201</text>
<text text-anchor="middle" x="889" y="-22.8" font-family="Helvetica,sans-Serif" font-size="14.00">value = [906, 295]</text>
<text text-anchor="middle" x="889" y="-7.8" font-family="Helvetica,sans-Serif" font-size="14.00">class = Stay</text>
</g>
<!-- 12&#45;&gt;13 -->
<g id="edge13" class="edge">
<title>12&#45;&gt;13</title>
<path fill="none" stroke="black" d="M889,-103.73C889,-95.52 889,-86.86 889,-78.56"/>
<polygon fill="black" stroke="black" points="892.5,-78.3 889,-68.3 885.5,-78.3 892.5,-78.3"/>
</g>
<!-- 14 -->
<g id="node15" class="node">
<title>14</title>
<path fill="#47a4e7" stroke="black" d="M1060,-68C1060,-68 982,-68 982,-68 976,-68 970,-62 970,-56 970,-56 970,-12 970,-12 970,-6 976,0 982,0 982,0 1060,0 1060,0 1066,0 1072,-6 1072,-12 1072,-12 1072,-56 1072,-56 1072,-62 1066,-68 1060,-68"/>
<text text-anchor="middle" x="1021" y="-52.8" font-family="Helvetica,sans-Serif" font-size="14.00">gini = 0.126</text>
<text text-anchor="middle" x="1021" y="-37.8" font-family="Helvetica,sans-Serif" font-size="14.00">samples = 59</text>
<text text-anchor="middle" x="1021" y="-22.8" font-family="Helvetica,sans-Serif" font-size="14.00">value = [4, 55]</text>
<text text-anchor="middle" x="1021" y="-7.8" font-family="Helvetica,sans-Serif" font-size="14.00">class = Exited</text>
</g>
<!-- 12&#45;&gt;14 -->
<g id="edge14" class="edge">
<title>12&#45;&gt;14</title>
<path fill="none" stroke="black" d="M938.15,-103.73C949.59,-94.24 961.74,-84.16 973.12,-74.72"/>
<polygon fill="black" stroke="black" points="975.4,-77.38 980.86,-68.3 970.93,-71.99 975.4,-77.38"/>
</g>
</g>
</svg>
